<?xml version="1.0" encoding="utf-8"?>
<!-- Generator: Adobe Illustrator 19.1.1, SVG Export Plug-In . SVG Version: 6.00 Build 0)  -->
<svg version="1.1" id="Layer_1" xmlns="http://www.w3.org/2000/svg" xmlns:xlink="http://www.w3.org/1999/xlink" x="0px" y="0px"
	 viewBox="0 0 24 24" style="enable-background:new 0 0 24 24;" xml:space="preserve">
<style type="text/css">
	.st0{fill:#0A5BF0;}
</style>
<g id="Слой_x0020_1">
	<path class="st0" d="M7.6,5.7h9.8c1.6,0,2.9,1.3,2.9,2.9v9.7c0,1.6-1.3,2.9-2.9,2.9h-1.6v1.3h-1.2v-1.3h-4.4v1.3H9v-1.3H7.6
		c-1.6,0-2.9-1.3-2.9-2.9V8.7C4.7,7.1,6,5.7,7.6,5.7z M13.1,8.6v8.7h-1.2V8.6H13.1z M14.6,4.4V2.6c0-0.1-0.1-0.1-0.1-0.1h-4.2
		c-0.1,0-0.1,0.1-0.1,0.1v1.8H9V2.6c0-0.7,0.6-1.3,1.3-1.3h4.2c0.7,0,1.3,0.6,1.3,1.3v1.8H14.6z M15.8,7v10.4h-1.2V7h-4.4v10.4H9V7
		H7.6C6.6,7,5.9,7.7,5.9,8.7v9.7c0,0.9,0.8,1.7,1.7,1.7h9.8c0.9,0,1.7-0.8,1.7-1.7V8.7c0-0.9-0.8-1.7-1.7-1.7H15.8z"/>
</g>
</svg>
