<?xml version="1.0" encoding="utf-8"?>
<!-- Generator: Adobe Illustrator 19.1.1, SVG Export Plug-In . SVG Version: 6.00 Build 0)  -->
<svg version="1.1" id="Layer_1" xmlns="http://www.w3.org/2000/svg" xmlns:xlink="http://www.w3.org/1999/xlink" x="0px" y="0px"
	 viewBox="0 0 24 24" style="enable-background:new 0 0 24 24;" xml:space="preserve">
<style type="text/css">
	.st0{fill:#0A5BF0;}
</style>
<g id="Слой_x0020_1">
	<path class="st0" d="M1.7,10.3c-0.2-1-0.2-2.1,0.1-3.2c0.8-2.7,3.3-4.6,6.1-4.6c1.5,0,2.9,0.5,4.1,1.5c1.2-1,2.6-1.5,4.1-1.5
		c2.8,0,5.3,1.8,6.1,4.5c0.3,1,0.4,2,0.2,3l-1.2-0.2c0.2-0.8,0.1-1.7-0.2-2.5c-0.7-2.2-2.7-3.7-5-3.7c-1.8,0-2.9,0.7-4.1,1.9
		c-1.2-1.2-2.3-1.9-4.1-1.9c-2.3,0-4.3,1.5-5,3.7c-0.2,0.8-0.3,1.7-0.1,2.6L1.7,10.3z M21.2,13.3h-6.2l-0.8-2.1l-2.3,6.3l-2.4-7.3
		l-1,3.1H2.9v-1.2h4.7l1.9-5.7l2.4,7.5l2.2-6l1.7,4.2h5.4V13.3z M6,14.6l6,5.9l5.9-5.9l0.8,0.8L12,22.1l-6.8-6.7L6,14.6z"/>
</g>
</svg>
