<?xml version="1.0" encoding="utf-8"?>
<!-- Generator: Adobe Illustrator 19.1.1, SVG Export Plug-In . SVG Version: 6.00 Build 0)  -->
<svg version="1.1" id="Layer_1" xmlns="http://www.w3.org/2000/svg" xmlns:xlink="http://www.w3.org/1999/xlink" x="0px" y="0px"
	 viewBox="0 0 24 24" style="enable-background:new 0 0 24 24;" xml:space="preserve">
<style type="text/css">
	.st0{fill:#0A5BF0;}
</style>
<g id="Слой_x0020_1">
	<path class="st0" d="M5.9,17.3l9.9-9.9l-0.7-3.6c-0.4-1.7,1.7-2.6,3-1.3L21.5,6c1.2,1.2,0.2,3.3-1.3,3l-2.4-0.5l0.2-1.1l2.2,0.5
		c0.5,0.1,0.9-0.6,0.4-1l-3.5-3.5c-0.5-0.5-1.2-0.2-1,0.4L17,7.8l-6.4,6.4l2.5,2.5c0.4,0.4,0.4,1,0,1.4l-3.7,3.7
		c-0.2,0.2-0.6,0.3-0.9,0.3l-5.7,0c-0.5,0-1-0.5-1-1v-5.6c0-0.3,0.2-0.8,0.4-1l3.6-3.6c0.4-0.4,1-0.4,1.4,0l1.8,1.8l-0.8,0.8
		l-1.7-1.7l-3.5,3.5c0,0,0,0.1,0,0.2V21l5.5,0l0.2,0l3.5-3.5L9.8,15l-3.1,3.1L5.9,17.3z"/>
</g>
</svg>
