<?xml version="1.0" encoding="utf-8"?>
<!-- Generator: Adobe Illustrator 19.1.1, SVG Export Plug-In . SVG Version: 6.00 Build 0)  -->
<svg version="1.1" id="Layer_1" xmlns="http://www.w3.org/2000/svg" xmlns:xlink="http://www.w3.org/1999/xlink" x="0px" y="0px"
	 viewBox="0 0 24 24" style="enable-background:new 0 0 24 24;" xml:space="preserve">
<style type="text/css">
	.st0{fill:#0A5BF0;}
</style>
<g id="Слой_x0020_1">
	<path class="st0" d="M11.9,9.1H5.8c-1.8,0-3.3,1.5-3.3,3.3v3.9c0,1.8,1.5,3.3,3.3,3.3h12.4c1.8,0,3.3-1.5,3.3-3.3v-3.9
		c0-1.8-1.5-3.3-3.3-3.3h-0.9V8h-5.5V9.1z M6.1,10.7c1.1,0,2,0.9,2,2s-0.9,2-2,2c-1.1,0-2-0.9-2-2C4.1,11.6,5,10.7,6.1,10.7z
		 M6.1,11.9c-0.4,0-0.8,0.3-0.8,0.8c0,0.4,0.3,0.8,0.8,0.8c0.4,0,0.8-0.3,0.8-0.8C6.9,12.3,6.5,11.9,6.1,11.9z M17.4,7.9h0.9
		c2.5,0,4.5,2,4.5,4.5v3.9c0,2.5-2,4.5-4.5,4.5H5.8c-2.5,0-4.5-2-4.5-4.5v-3.9c0-2.5,2-4.5,4.5-4.5h6.1V6.8h5.5V7.9z M10.7,6.2V2
		h7.8v4.2h-1.2v-3h-5.4v3H10.7z M14.6,10.5c2.1,0,3.8,1.7,3.8,3.8s-1.7,3.8-3.8,3.8c-2.1,0-3.8-1.7-3.8-3.8
		C10.8,12.2,12.5,10.5,14.6,10.5z M14.6,11.7c-1.5,0-2.6,1.2-2.6,2.6s1.2,2.6,2.6,2.6c1.5,0,2.6-1.2,2.6-2.6S16.1,11.7,14.6,11.7z"
		/>
</g>
</svg>
