<?xml version="1.0" encoding="utf-8"?>
<!-- Generator: Adobe Illustrator 19.1.1, SVG Export Plug-In . SVG Version: 6.00 Build 0)  -->
<svg version="1.1" id="Layer_1" xmlns="http://www.w3.org/2000/svg" xmlns:xlink="http://www.w3.org/1999/xlink" x="0px" y="0px"
	 viewBox="0 0 24 24" style="enable-background:new 0 0 24 24;" xml:space="preserve">
<style type="text/css">
	.st0{fill:#0A5BF0;}
</style>
<g id="Слой_x0020_1">
	<path class="st0" d="M20,7.9v14.7H4.4V7.9h1.2v13.5h13.2V7.9H20z M16.2,14.7c-1.3-1.3-2.4-0.5-3.4,0.3c-1.3,1-2.6,2-4.3,1
		c0.6,1.5,2.1,2.5,3.7,2.5C14.4,18.5,16.1,16.8,16.2,14.7z M8.2,14.2c1.6,1.6,2.7,0.7,3.8-0.2c1.2-0.9,2.4-1.8,3.9-1.1
		c-0.6-1.5-2.1-2.5-3.7-2.5C10.1,10.5,8.4,12.1,8.2,14.2z M10.3,3.4h3.9v1.2h-3.9V3.4z M12.2,9.3c2.9,0,5.2,2.3,5.2,5.2
		c0,2.9-2.3,5.2-5.2,5.2c-2.9,0-5.2-2.3-5.2-5.2C7,11.6,9.3,9.3,12.2,9.3z M12.2,7.6c-3,0-5.2-0.8-7.8-2V2.9c0-1.1,1-1.9,2-1.9H18
		c1,0,2,0.8,2,1.9v2.7C17.4,6.8,15.2,7.6,12.2,7.6z M12.2,6.4c2.4,0,4.4-0.6,6.6-1.6V2.9c0-0.4-0.4-0.7-0.8-0.7H6.4
		c-0.4,0-0.8,0.2-0.8,0.7v1.9C7.8,5.8,9.8,6.4,12.2,6.4z"/>
</g>
</svg>
