<?xml version="1.0" encoding="utf-8"?>
<!-- Generator: Adobe Illustrator 19.1.1, SVG Export Plug-In . SVG Version: 6.00 Build 0)  -->
<svg version="1.1" id="Layer_1" xmlns="http://www.w3.org/2000/svg" xmlns:xlink="http://www.w3.org/1999/xlink" x="0px" y="0px"
	 viewBox="0 0 24 24" style="enable-background:new 0 0 24 24;" xml:space="preserve">
<style type="text/css">
	.st0{fill:#0A5BF0;}
</style>
<g id="Слой_x0020_1">
	<path class="st0" d="M11.2,10.5c-3,2.3-5.7,4.2-4.5,8.4l-1.1,0.3c-1.3-4.8,1.5-7,5-9.6L11.2,10.5z M15.3,4.5c0.9,1.8,0.7,3.2,0,4.2
		c-1.4,1.9-4.1,1.4-4.1-1.3c0-1.9,0.5-3.3,1.5-4.3c1-1,2.4-1.5,4.3-1.5c1,0,1.3,0.4,1.9,1.1c0.8,0,2-0.1,2.7,0.3
		c0.9,0.4,1.3,1.3,0.4,3.1l-1-0.5c0.5-1,0.4-1.4,0.1-1.5c-0.5-0.3-2-0.2-2.7-0.2c-0.4-0.4-0.8-1.1-1.4-1.1c-1.6,0-2.7,0.4-3.5,1.1
		c-0.7,0.7-1.1,1.9-1.1,3.5c0,1.6,1.2,1.7,2,0.6c0.5-0.6,0.6-1.6-0.1-3L15.3,4.5z M20.2,7.3c-0.6-0.2-1.3-0.2-1.8,0.2
		c0.5,1.6,0.9,3.1,0.8,4.5c-0.1,1.5-0.7,2.8-2.1,4.1l0.7,2.2c0.1,0.3,3.1,0.3,3.1,3.6v0.6h-3.9v-1.2h2.7c-0.4-2-2.6-1.3-3-2.7
		l-0.9-2.9c1.2-1.1,2.1-2.1,2.2-3.8c0.1-1.5-0.5-3.3-1-4.7c1-1.1,2.1-1.4,3.5-1L20.2,7.3z M4,12.9c-0.8,1.4-1.2,2.8-1.2,4
		c0,2.1,1.3,4.5,3.6,4.5h8.2c-0.1-0.6-0.2-0.9-0.5-1.1c-0.6-0.4-2.1-0.3-2.9-0.3l0-1c0.7-0.8,2.1-2.7,0.4-3.3
		c-0.6-0.2-1.6-0.2-2.8,0.2l-0.3-1.1c1.4-0.4,2.6-0.4,3.4-0.1c2.1,0.7,1.9,2.7,0.9,4.2c2.1,0.1,3,0.9,3,3.1v0.6H6.4
		c-3,0-4.8-2.9-4.8-5.6c0-1.4,0.4-2.9,1.3-4.6L4,12.9z"/>
</g>
</svg>
