<?xml version="1.0" encoding="utf-8"?>
<!-- Generator: Adobe Illustrator 19.1.1, SVG Export Plug-In . SVG Version: 6.00 Build 0)  -->
<svg version="1.1" id="Layer_1" xmlns="http://www.w3.org/2000/svg" xmlns:xlink="http://www.w3.org/1999/xlink" x="0px" y="0px"
	 viewBox="0 0 24 24" style="enable-background:new 0 0 24 24;" xml:space="preserve">
<style type="text/css">
	.st0{fill:#0A5BF0;}
</style>
<g id="Слой_x0020_1">
	<path class="st0" d="M18.2,21.5c1,0,1.8-0.8,1.8-1.8S19.2,18,18.2,18s-1.8,0.8-1.8,1.8C16.5,20.7,17.3,21.5,18.2,21.5z M9.2,21.5
		c1,0,1.8-0.8,1.8-1.8S10.2,18,9.2,18s-1.8,0.8-1.8,1.8C7.4,20.7,8.2,21.5,9.2,21.5z M9.2,22.7c-1.7,0-3-1.4-3-3c0-1.7,1.4-3,3-3
		c1.4,0,2.7,1,3,2.4h3.1c0.1-0.5,0.3-0.9,0.6-1.3L8.9,9.3H6.8c-0.5,0-1,0.4-1,0.9v2.9c0,0.5,0.4,0.9,1,0.9h4.9v1.3H6.8
		c-1.2,0-2.2-1-2.2-2.2v-2.9C4.6,9,5.6,8,6.8,8h1.1L5.8,5.4C4.3,3.6,3.4,3.2,1,3.2V1.9c2.8,0,4.1,0.6,5.8,2.7l7.7,9.5h6.1
		c0.5,0,1-0.4,1-0.9V10L15,11.1l-0.2-1.2l6.8-1.2c0-1.3-0.4-2.5-1.2-3.5l-5.8,4.4l-0.8-1l5.7-4.3c-0.9-0.8-2.1-1.5-3.5-1.9l-2.4,6
		l-1.2-0.5L15.1,1l0.8,0c1.9,0.5,3.7,1.4,5,2.9c1.2,1.3,1.9,2.9,1.9,4.7v4.5c0,1.2-1,2.2-2.2,2.2h-5.1l1.3,1.6
		c0.4-0.2,0.9-0.3,1.4-0.3c1.7,0,3,1.4,3,3c0,1.7-1.4,3-3,3c-1.4,0-2.7-1-3-2.4h-3.1C11.9,21.7,10.6,22.7,9.2,22.7z"/>
</g>
</svg>
