<?xml version="1.0" encoding="utf-8"?>
<!-- Generator: Adobe Illustrator 19.1.1, SVG Export Plug-In . SVG Version: 6.00 Build 0)  -->
<svg version="1.1" id="Layer_1" xmlns="http://www.w3.org/2000/svg" xmlns:xlink="http://www.w3.org/1999/xlink" x="0px" y="0px"
	 viewBox="0 0 24 24" style="enable-background:new 0 0 24 24;" xml:space="preserve">
<style type="text/css">
	.st0{fill:#0A5BF0;}
</style>
<g id="Слой_x0020_1">
	<path class="st0" d="M13,19.6c-2,0.1-4,0.5-5.7,1.4H20c-1.9-1-3.8-1.3-5.9-1.4c0-1.8-0.1-3.5-0.5-5.3c-0.3-1.4-0.7-2.8-1.2-4.1
		L8,15.3l-1.3-0.1C6,12.7,7,10.3,8.1,8l1.1,0.5C8.4,10,7.4,12.3,7.7,14l4.4-5.3l1.1,0.2c0.7,1.7,1.2,3.3,1.6,5.1
		c0.3,1.4,0.5,2.9,0.5,4.4c2.6,0.3,4.5,1,6.7,2.3l-1.1,1.4H6.5l-1.1-1.4c2.5-1.5,4.7-2.3,7.6-2.4L13,19.6z M3.3,12.4
		C3,9.7,4.4,7.7,6.6,6.5l0.5,1c-1.8,1-2.9,2.5-2.7,4.7L3.3,12.4z M2.3,6.9c1.3-1.5,3.2-2.7,5.1-3c1.6-0.2,3.1,0.2,4.3,1.3
		c0.4-1.5,1.4-2.6,2.9-3.2c2.2-0.8,4.7-0.1,6.7,1l-0.6,1c-1.6-0.9-3.9-1.7-5.7-1c-1.5,0.6-2,1.7-2.3,3.2l-1.1,0.4
		c-1.1-1.3-2.1-1.9-4-1.7C5.9,5.3,4.3,6.4,3.2,7.7L2.3,6.9z M16.3,4.1c2.3-0.2,5,1.5,5.8,3.6l-1.1,0.4c-0.7-1.7-2.9-3-4.6-2.9
		L16.3,4.1z M16.2,6.4c1.9,1.4,4.3,2.5,4.8,5l-1,0.9l-4.4-1.2l0.3-1.1l3.8,1.1l0,0c-0.5-1.4-2.9-2.7-4.1-3.6L16.2,6.4z"/>
</g>
</svg>
