<?xml version="1.0" encoding="utf-8"?>
<!-- Generator: Adobe Illustrator 19.1.1, SVG Export Plug-In . SVG Version: 6.00 Build 0)  -->
<svg version="1.1" id="Layer_1" xmlns="http://www.w3.org/2000/svg" xmlns:xlink="http://www.w3.org/1999/xlink" x="0px" y="0px"
	 viewBox="0 0 24 24" style="enable-background:new 0 0 24 24;" xml:space="preserve">
<style type="text/css">
	.st0{fill:#0A5BF0;}
</style>
<g id="Слой_x0020_1">
	<path class="st0" d="M11.1,22.8v-5.7H2.9v-2.9c0-2,1.7-3.7,3.9-3.7h1.8L9.1,6L5.9,4.3l1-2.1h9.9l1,2.1L14.5,6l0.6,4.5h1.8
		c2.1,0,3.9,1.7,3.9,3.7v2.9h-6.8v-1.3h5.6v-1.7c0-1.4-1.1-2.5-2.6-2.5c-1.3,0-3.8,0-5.1,0v-1.2h2l-0.7-5.1l2.9-1.5l-0.2-0.4H7.7
		L7.5,3.8l2.9,1.5l-0.8,6.3h-3c-1.5,0-2.6,1.2-2.6,2.5v1.7h8.3v6.8h-1.2V22.8z"/>
</g>
</svg>
