<?xml version="1.0" encoding="utf-8"?>
<!-- Generator: Adobe Illustrator 19.1.1, SVG Export Plug-In . SVG Version: 6.00 Build 0)  -->
<svg version="1.1" id="Layer_1" xmlns="http://www.w3.org/2000/svg" xmlns:xlink="http://www.w3.org/1999/xlink" x="0px" y="0px"
	 viewBox="0 0 24 24" style="enable-background:new 0 0 24 24;" xml:space="preserve">
<style type="text/css">
	.st0{fill:#0A5BF0;}
</style>
<g id="Слой_x0020_1">
	<path class="st0" d="M2.9,11.7l0,0.4c0,5.1,4.1,9.2,9.2,9.2s9.2-4.1,9.2-9.2s-4.1-9.2-9.2-9.2c-3.2,0-6.2,1.6-7.8,4.3l7.5,4.1
		l1.6-2.6l1,0.6l-2.2,3.6L3,7.8L3,7.1c1.9-3.3,5.2-5.4,9.1-5.4c5.7,0,10.4,4.7,10.4,10.4c0,5.7-4.7,10.4-10.4,10.4
		c-5.7,0-10.4-4.7-10.4-10.4l0-0.5L2.9,11.7z M16.9,8.7l1.4-0.8l0.6,1l-1.4,0.8L16.9,8.7z M14.5,6.7l0.8-1.4l1,0.6l-0.8,1.4
		L14.5,6.7z M8.4,7.3L7.6,5.9l1-0.6l0.8,1.4L8.4,7.3z M5.9,12.8H4.3v-1.2h1.6V12.8z M12.5,18.3v1.6h-1.2v-1.6H12.5z M5,15.6l1.4-0.8
		l0.6,1l-1.4,0.8L5,15.6z M7.6,18.6l0.8-1.4l1,0.6l-0.8,1.4L7.6,18.6z M15.3,19.2l-0.8-1.4l1-0.6l0.8,1.4L15.3,19.2z M18.3,16.6
		l-1.4-0.8l0.6-1l1.4,0.8L18.3,16.6z M19.6,12.8H18v-1.2h1.6V12.8z M12.5,4.6v1.6h-1.2V4.6H12.5z"/>
</g>
</svg>
