<?xml version="1.0" encoding="utf-8"?>
<!-- Generator: Adobe Illustrator 19.1.1, SVG Export Plug-In . SVG Version: 6.00 Build 0)  -->
<svg version="1.1" id="Layer_1" xmlns="http://www.w3.org/2000/svg" xmlns:xlink="http://www.w3.org/1999/xlink" x="0px" y="0px"
	 viewBox="0 0 24 24" style="enable-background:new 0 0 24 24;" xml:space="preserve">
<style type="text/css">
	.st0{fill:#0A5BF0;}
</style>
<g id="Слой_x0020_1">
	<path class="st0" d="M8.2,12.1l-0.7,9.4H4.4C4,17,3.5,11.9,1.9,7.6c0.2-1.8,0.9-4.2,2.7-5C5.5,2.1,6.5,2.2,7.2,3
		C8,4.1,8.8,5.2,9.6,6.2c1.3,1.8,4.5,6.9,7.2,5.6c3,0.7,5.2,0.3,5.3,4.3c0.1,3-0.6,4.5-3.6,5.2c-1.5,0.3-2.6,0.5-3.6,0.3
		c-2.3-0.4-3.3-3.5-4.1-5.5c-1.2-2.8-2.4-5.4-5.2-7l0.6-1c3.2,1.8,4.4,4.6,5.7,7.6c0.2,0.5,0.4,0.9,0.6,1.4l8.5,0.4
		c0-0.4,0.1-0.9,0-1.4c-0.1-2.9-1.8-2.7-4-3.1c-2.8,1.2-5.2-2-8.3-6.1c-0.7-1-1.5-2.1-2.4-3.1C5.9,3.4,5.5,3.4,5.1,3.6
		c-1.3,0.6-1.9,2.6-2,3.8c1.5,3.8,2.1,8.9,2.4,13h0.9l0.6-8.3L8.2,12.1z M13,18.3c0.5,0.9,1,2,2.1,2.2c0.8,0.1,1.8,0,3.1-0.3
		c0.9-0.2,2-0.5,2.4-1.5L13,18.3z"/>
</g>
</svg>
