<?xml version="1.0" encoding="utf-8"?>
<!-- Generator: Adobe Illustrator 19.1.1, SVG Export Plug-In . SVG Version: 6.00 Build 0)  -->
<svg version="1.1" id="Layer_1" xmlns="http://www.w3.org/2000/svg" xmlns:xlink="http://www.w3.org/1999/xlink" x="0px" y="0px"
	 viewBox="0 0 24 24" style="enable-background:new 0 0 24 24;" xml:space="preserve">
<style type="text/css">
	.st0{fill:#0A5BF0;}
</style>
<g id="Слой_x0020_1">
	<path class="st0" d="M14.3,5.1H5.7L4.8,6.7H2.6v1.8L5.8,11l-3.2,5.8v2.7h7.9v-1.8L6,16.6l1.8-6L9,11l-1.5,4.8l4.2,1v3.9H1.4v-4.2
		l2.9-5.2L1.4,9V5.5h2.7L5,3.9h9.3V5.1z M22.8,8.5H17c-0.3,1.3-1.4,2.2-2.7,2.2V9.4c0.9,0,1.6-0.7,1.6-1.6c0-0.9-0.7-1.6-1.6-1.6
		V5.1c1.3,0,2.4,0.9,2.7,2.2h5.8V8.5z M14.3,8.5H8.6l-0.7,2.2l-1.1-0.4l1-3h6.6V8.5z M9.3,13.6l1-2.9h4v1.2h-3.2l-0.7,2.1L9.3,13.6z
		"/>
</g>
</svg>
