<?xml version="1.0" encoding="utf-8"?>
<!-- Generator: Adobe Illustrator 19.1.1, SVG Export Plug-In . SVG Version: 6.00 Build 0)  -->
<svg version="1.1" id="Layer_1" xmlns="http://www.w3.org/2000/svg" xmlns:xlink="http://www.w3.org/1999/xlink" x="0px" y="0px"
	 viewBox="0 0 24 24" style="enable-background:new 0 0 24 24;" xml:space="preserve">
<style type="text/css">
	.st0{fill:#0A5BF0;}
</style>
<g id="Слой_x0020_1">
	<path class="st0" d="M7.2,11.1c0.6,0.3,1,1.3,1.3,1.3c0.5,0,0.6-1.4,1.8-1.4c1.2,0,1.4,1.4,1.8,1.4c0.4,0,0.6-1.4,1.8-1.4
		c1.2,0,1.4,1.4,1.8,1.4c0.3,0,0.7-1.1,1.3-1.3c-0.1-0.7-0.7-1.2-1.4-1.2H8.7C7.9,9.8,7.3,10.3,7.2,11.1z M3.7,20.5v-3
		c0-1.4,1.2-2.5,2.5-2.5h12c1.4,0,2.5,1.1,2.5,2.5v3h-1.1v-1.7H4.7v1.7H3.7z M19.6,17.8v-0.2c0-0.8-0.7-1.5-1.5-1.5h-12
		c-0.8,0-1.5,0.7-1.5,1.5v0.2H19.6z M17.2,12.6c-0.3,0.4-0.6,0.9-1.3,0.9c-1.2,0-1.4-1.4-1.8-1.4c-0.4,0-0.6,1.4-1.8,1.4
		c-1.2,0-1.4-1.4-1.8-1.4c-0.4,0-0.6,1.4-1.8,1.4c-0.7,0-1-0.4-1.3-0.9v1.7H6.1v-3c0-1.4,1.2-2.5,2.5-2.5h3V8.1
		c-1.4-0.3-1.9-1.6-1.4-2.9c0.4-1.1,0.4-2-0.1-3l0.5-0.7c2.1,0.7,3.1,2,3.5,4.2c0.2,1.1-0.2,2.1-1.4,2.4v0.6h3
		c1.4,0,2.5,1.1,2.5,2.5v3h-1.1V12.6z M11.3,5.6C11,6.3,11.2,7,12,7.1c0.8,0.1,1.2-0.5,1-1.3c-0.2-1.1-0.6-2-1.4-2.8
		C11.7,3.9,11.6,4.8,11.3,5.6z M2.3,21.4h19.8v1.1H2.3V21.4z"/>
</g>
</svg>
