<svg width="215" height="40" viewBox="0 0 215 40" fill="none" xmlns="http://www.w3.org/2000/svg">
<path fill-rule="evenodd" clip-rule="evenodd" d="M41.02 38.4821H47.2472V1.10205H41.02V38.4821Z" fill="#2150F4"/>
<path fill-rule="evenodd" clip-rule="evenodd" d="M166.869 13.562C172.71 13.562 177.445 18.2995 177.445 24.1425V38.4821H171.218V24.1425C171.218 21.74 169.271 19.7923 166.869 19.7923C164.467 19.7923 162.521 21.74 162.521 24.1425V38.4821H156.294V24.1425C156.294 21.74 154.347 19.7923 151.945 19.7923H147.596V38.4821H141.369V13.562H151.945C154.857 13.562 157.495 14.74 159.407 16.6457C161.32 14.74 163.957 13.562 166.869 13.562" fill="#2150F4"/>
<path fill-rule="evenodd" clip-rule="evenodd" d="M65.4518 38.4821H77.9056V32.2518C74.4663 32.2518 71.6784 29.4625 71.6784 26.022C71.6784 22.5811 68.8905 19.7923 65.4518 19.7923C62.0126 19.7923 59.2246 22.5811 59.2246 26.022C59.2246 29.4625 62.0126 32.2518 65.4518 32.2518H77.9056V26.022C77.9056 19.1406 72.3297 13.562 65.4518 13.562C58.5739 13.562 52.998 19.1406 52.998 26.022C52.998 32.9034 58.5739 38.4821 65.4518 38.4821" fill="#2150F4"/>
<path fill-rule="evenodd" clip-rule="evenodd" d="M89.4932 13.5621V1.10205H83.2666V26.0215C83.2666 32.9029 88.8424 38.4816 95.7204 38.4816C102.598 38.4816 108.174 32.9029 108.174 26.0215C108.174 19.1401 102.598 13.5621 95.7204 13.5621H89.4932ZM89.4932 13.562C89.4932 17.0024 92.2811 19.7917 95.7203 19.7917C99.159 19.7917 101.947 22.5811 101.947 26.0215C101.947 29.4625 99.159 32.2518 95.7203 32.2518C92.2811 32.2518 89.4932 29.4625 89.4932 26.0215V13.562V13.562Z" fill="#2150F4"/>
<path fill-rule="evenodd" clip-rule="evenodd" d="M124.231 38.4815C117.353 38.4815 111.778 32.9029 111.778 26.0215C111.778 19.1401 117.353 13.562 124.231 13.562C131.109 13.562 136.685 19.1401 136.685 26.0215C136.685 32.9029 131.109 38.4815 124.231 38.4815ZM124.231 32.2518C120.792 32.2518 118.004 29.4625 118.004 26.0215C118.004 22.5811 120.792 19.7917 124.231 19.7917C127.67 19.7917 130.457 22.5811 130.457 26.0215C130.457 29.4625 127.67 32.2518 124.231 32.2518V32.2518Z" fill="#2150F4"/>
<path fill-rule="evenodd" clip-rule="evenodd" d="M13.6504 11.9496C14.3619 9.29077 16.7842 7.33179 19.6656 7.33179H25.6694C22.3594 8.23074 20.398 11.64 21.2863 14.9567L24.2392 26.0221H9.88184L13.6504 11.9496ZM25.6694 7.33178V1.10205H19.6656C13.9033 1.10205 9.05759 5.02002 7.63416 10.3366L0.0986328 38.4821H6.54575L8.21407 32.2518H25.9024L27.5651 38.4821H34.0116L25.6694 7.33178V7.33178Z" fill="#2150F4"/>
<path d="M179 13.8238V1H183.454C184.996 1 186.167 1.29946 186.964 1.89837C187.762 2.49142 188.16 3.36337 188.16 4.51423C188.16 5.1425 188 5.69738 187.68 6.17886C187.36 6.65447 186.915 7.00384 186.344 7.22696C186.996 7.39137 187.508 7.72313 187.881 8.22222C188.259 8.72132 188.449 9.33198 188.449 10.0542C188.449 11.2873 188.059 12.2209 187.278 12.855C186.498 13.4892 185.386 13.8121 183.943 13.8238H179ZM181.62 8.23984V11.7012H183.864C184.481 11.7012 184.961 11.5544 185.305 11.2608C185.654 10.9614 185.829 10.5504 185.829 10.0278C185.829 8.85343 185.226 8.25745 184.021 8.23984H181.62ZM181.62 6.37263H183.558C184.88 6.34914 185.541 5.81775 185.541 4.77846C185.541 4.19715 185.372 3.78026 185.034 3.52778C184.702 3.26942 184.175 3.14024 183.454 3.14024H181.62V6.37263Z" fill="#A4AABC"/>
<path d="M194.605 14C193.219 14 192.09 13.5714 191.217 12.7141C190.349 11.8568 189.916 10.7148 189.916 9.28794V9.04133C189.916 8.08424 190.099 7.2299 190.466 6.47832C190.833 5.72087 191.351 5.13957 192.02 4.73442C192.696 4.3234 193.464 4.11789 194.326 4.11789C195.618 4.11789 196.634 4.52891 197.373 5.35095C198.118 6.17299 198.491 7.33853 198.491 8.84756V9.88686H192.474C192.556 10.5093 192.8 11.0084 193.208 11.3841C193.621 11.7599 194.142 11.9478 194.771 11.9478C195.743 11.9478 196.503 11.5926 197.05 10.8821L198.29 12.2825C197.912 12.8227 197.399 13.2455 196.753 13.5508C196.107 13.8503 195.391 14 194.605 14ZM194.317 6.17886C193.816 6.17886 193.409 6.34914 193.094 6.6897C192.786 7.03026 192.588 7.51761 192.5 8.15176H196.011V7.94919C195.999 7.3855 195.848 6.95099 195.557 6.64566C195.266 6.33446 194.852 6.17886 194.317 6.17886Z" fill="#A4AABC"/>
<path d="M202.953 1.95122V4.29404H204.569V6.16125H202.953V10.9173C202.953 11.2696 203.02 11.5221 203.154 11.6748C203.288 11.8275 203.544 11.9038 203.923 11.9038C204.202 11.9038 204.45 11.8832 204.665 11.8421V13.771C204.17 13.9237 203.661 14 203.137 14C201.367 14 200.465 13.0987 200.43 11.2961V6.16125H199.05V4.29404H200.43V1.95122H202.953Z" fill="#A4AABC"/>
<path d="M211.45 13.8238C211.334 13.5949 211.249 13.3101 211.197 12.9695C210.586 13.6565 209.791 14 208.813 14C207.887 14 207.119 13.7299 206.507 13.1897C205.902 12.6495 205.599 11.9684 205.599 11.1463C205.599 10.1364 205.969 9.36134 206.708 8.82114C207.454 8.28094 208.528 8.0079 209.931 8.00203H211.092V7.45596C211.092 7.01558 210.979 6.66328 210.751 6.39905C210.53 6.13482 210.178 6.00271 209.695 6.00271C209.27 6.00271 208.935 6.10546 208.691 6.31098C208.452 6.51649 208.333 6.79833 208.333 7.1565H205.809C205.809 6.60456 205.978 6.09372 206.315 5.62398C206.653 5.15425 207.13 4.78726 207.748 4.52304C208.365 4.25294 209.057 4.11789 209.826 4.11789C210.99 4.11789 211.913 4.41441 212.594 5.00745C213.281 5.59462 213.625 6.42254 213.625 7.49119V11.622C213.63 12.5262 213.755 13.2103 214 13.6741V13.8238H211.45ZM209.363 12.0535C209.736 12.0535 210.079 11.9713 210.393 11.8069C210.708 11.6366 210.941 11.4106 211.092 11.1287V9.49051H210.149C208.886 9.49051 208.213 9.93089 208.132 10.8117L208.123 10.9614C208.123 11.2785 208.234 11.5397 208.455 11.7453C208.676 11.9508 208.979 12.0535 209.363 12.0535Z" fill="#A4AABC"/>
</svg>
