<svg version="1.1" xmlns="http://www.w3.org/2000/svg" x="0px" y="0px"
	 width="192px" height="40px" viewBox="0 0 192 40">
<path fill-rule="evenodd" clip-rule="evenodd" fill="#2150F4" d="M41,38.5h6.2V1.1H41V38.5z"/>
<path fill-rule="evenodd" clip-rule="evenodd" fill="#2150F4" d="M166.9,13.6c5.8,0,10.6,4.7,10.6,10.6v14.3h-6.2V24.1
	c0-2.4-1.9-4.4-4.3-4.4c-2.4,0-4.3,1.9-4.3,4.4v14.3h-6.2V24.1c0-2.4-1.9-4.4-4.3-4.4h-4.3v18.7h-6.2V13.6h10.6
	c2.9,0,5.5,1.2,7.5,3.1C161.3,14.7,164,13.6,166.9,13.6"/>
<path fill-rule="evenodd" clip-rule="evenodd" fill="#2150F4" d="M65.5,38.5h12.5v-6.2c-3.4,0-6.2-2.8-6.2-6.2
	c0-3.4-2.8-6.2-6.2-6.2c-3.4,0-6.2,2.8-6.2,6.2c0,3.4,2.8,6.2,6.2,6.2h12.5V26c0-6.9-5.6-12.5-12.5-12.5S53,19.1,53,26
	S58.6,38.5,65.5,38.5"/>
<path fill-rule="evenodd" clip-rule="evenodd" fill="#2150F4" d="M89.5,13.6V1.1h-6.2V26c0,6.9,5.6,12.5,12.5,12.5
	c6.9,0,12.5-5.6,12.5-12.5s-5.6-12.5-12.5-12.5H89.5z M89.5,13.6c0,3.4,2.8,6.2,6.2,6.2c3.4,0,6.2,2.8,6.2,6.2
	c0,3.4-2.8,6.2-6.2,6.2c-3.4,0-6.2-2.8-6.2-6.2V13.6L89.5,13.6z"/>
<path fill-rule="evenodd" clip-rule="evenodd" fill="#2150F4" d="M124.2,38.5c-6.9,0-12.5-5.6-12.5-12.5s5.6-12.5,12.5-12.5
	c6.9,0,12.5,5.6,12.5,12.5S131.1,38.5,124.2,38.5z M124.2,32.3c-3.4,0-6.2-2.8-6.2-6.2c0-3.4,2.8-6.2,6.2-6.2c3.4,0,6.2,2.8,6.2,6.2
	C130.5,29.5,127.7,32.3,124.2,32.3L124.2,32.3z"/>
<path fill-rule="evenodd" clip-rule="evenodd" fill="#2150F4" d="M13.7,11.9c0.7-2.7,3.1-4.6,6-4.6h6c-3.3,0.9-5.3,4.3-4.4,7.6
	l3,11.1H9.9L13.7,11.9z M25.7,7.3V1.1h-6c-5.8,0-10.6,3.9-12,9.2L0.1,38.5h6.4l1.7-6.2h17.7l1.7,6.2H34L25.7,7.3L25.7,7.3z"/>
</svg>
