<svg width="14" height="14" viewBox="0 0 14 14" fill="none" xmlns="http://www.w3.org/2000/svg">
<path fill-rule="evenodd" clip-rule="evenodd" d="M9.31752 4.57006L12.9972 5.1079C13.407 5.16781 13.6907 5.54863 13.6308 5.95849C13.607 6.12158 13.5301 6.27228 13.412 6.38728L10.75 8.98006L11.3781 12.642C11.4481 13.0503 11.1739 13.438 10.7657 13.508C10.6031 13.5359 10.4358 13.5094 10.2898 13.4326L7.00002 11.7026L3.71024 13.4326C3.34363 13.6254 2.89015 13.4845 2.69735 13.1179C2.62056 12.9719 2.59406 12.8046 2.62195 12.642L3.25002 8.98006L0.588029 6.38728C0.291304 6.09827 0.28505 5.62344 0.57406 5.32671C0.689065 5.20864 0.839764 5.13174 1.00286 5.1079L4.68252 4.57006L6.32749 1.23754C6.51083 0.866107 6.96056 0.713632 7.33199 0.896973C7.47986 0.969965 7.59956 1.08966 7.67255 1.23754L9.31752 4.57006Z" fill="#FF9D00"/>
</svg>
