<svg xmlns="http://www.w3.org/2000/svg" width="24" height="24" viewBox="0 0 24 24">
  <path fill-rule="evenodd" d="M19.0219353,14.0181724 C19.0219353,14.0181724 20.4772403,15.4663659 20.8372415,16.1365068 C20.8471415,16.1510159 20.8516415,16.1618978 20.8534415,16.1682455 C21.000142,16.4158078 21.0361422,16.6098675 20.9641419,16.7531453 C20.8426415,16.9898256 20.4313401,17.1086192 20.2918396,17.1185942 L17.7196309,17.1185942 C17.5405303,17.1185942 17.1679291,17.0714395 16.7143275,16.7558657 C16.3678263,16.5119308 16.0231252,16.110209 15.689224,15.7175554 C15.1906224,15.1344693 14.7595209,14.6284631 14.3230194,14.6284631 C14.2672192,14.6284631 14.213219,14.6375313 14.1610189,14.6556677 C13.8307177,14.760859 13.4113163,15.2351265 13.4113163,16.4983285 C13.4113163,16.8937026 13.1017153,17.1185942 12.8848145,17.1185942 L11.7067105,17.1185942 C11.3053092,17.1185942 9.2155021,16.9771301 7.36239583,15.0084212 C5.09168813,12.5980903 3.05228122,7.76291934 3.03248115,7.72029874 C2.90558072,7.40744541 3.17198163,7.23696301 3.4599826,7.23696301 L6.0573914,7.23696301 C6.40569258,7.23696301 6.51909297,7.44915919 6.59829324,7.63959165 C6.69009355,7.85813557 7.0302947,8.73231126 7.58829659,9.71439868 C8.49189965,11.3122177 9.04720153,11.9624086 9.49090304,11.9624086 C9.57460332,11.9624086 9.65380359,11.9415517 9.72850384,11.8989311 C10.3081058,11.5779164 10.2001054,9.49222747 10.1731053,9.0623942 C10.1731053,8.97896664 10.1722053,8.13108877 9.87520434,7.72120556 C9.66280362,7.42739548 9.30100239,7.313136 9.08230165,7.27142222 C9.14080185,7.18618102 9.26500227,7.05559876 9.42430281,6.97851896 C9.82120416,6.77901828 10.5385066,6.75 11.250409,6.75 L11.6455103,6.75 C12.417713,6.76088186 12.6175136,6.81075702 12.8983146,6.8823959 C13.4635165,7.01841909 13.4743165,7.38749534 13.4248164,8.6443496 C13.4104163,9.00345082 13.3951163,9.4078931 13.3951163,9.88397426 C13.3951163,9.98553824 13.3906163,10.0988909 13.3906163,10.2140572 C13.3735162,10.8588071 13.3510161,11.5851709 13.8028176,11.8835151 C13.8604178,11.919788 13.9279181,11.939738 13.9981183,11.939738 C14.1547188,11.939738 14.6236204,11.939738 15.8953247,9.7406965 C16.4533266,8.76949093 16.8853281,7.62417569 16.9150282,7.53802767 C16.9402283,7.48996614 17.0158285,7.35484978 17.1076288,7.3004405 C17.1778291,7.25691308 17.2714294,7.24965851 17.3200296,7.24965851 L20.3755399,7.24965851 C20.708541,7.24965851 20.9344418,7.3004405 20.978542,7.42739548 C21.0523422,7.6332439 20.9641419,8.26167103 19.5691372,10.1623684 C19.3342364,10.478849 19.1281357,10.752709 18.9472351,10.9921098 C17.6827308,12.6642882 17.6827308,12.7486226 19.0219353,14.0181724 L19.0219353,14.0181724 Z"/>
</svg>
