<?xml version="1.0" encoding="utf-8"?>
<!-- Generator: Adobe Illustrator 19.1.1, SVG Export Plug-In . SVG Version: 6.00 Build 0)  -->
<svg version="1.1" id="Layer_1" xmlns="http://www.w3.org/2000/svg" xmlns:xlink="http://www.w3.org/1999/xlink" x="0px" y="0px"
	 viewBox="0 0 24 24" style="enable-background:new 0 0 24 24;" xml:space="preserve">
<style type="text/css">
	.st0{fill:#0A5BF0;}
</style>
<g id="Слой_x0020_1">
	<path class="st0" d="M5.8,14.7c-0.4,0-0.8,0.2-1.2,0.4c-1.4,0.8-1.9,2.6-1.1,4.1c0.8,1.4,2.6,1.9,4.1,1.1c1.1-0.6,1.7-1.9,1.4-3.1
		l-2.7,1.1l-0.7-0.7l1.8-4.7c-1.6-0.4-3.5-0.1-5.7,0.6l-0.4-1.1c2.4-0.8,4.6-1.1,6.5-0.6c1.6,0.4,2.9,1.5,3.8,3.1l2.3-0.9
		c-2.3-3.2-1.2-7.7,2.5-9.3c-1.5-1-3-1-4.8-0.6l1,2.8l-2,2.5l-9.3,1.5L1,9.8l8.9-1.5l1.3-1.7l-0.2-0.4C10,6.7,8.6,7.1,7.4,6.7l0.4-1
		C8.7,6,9.9,5.6,10.7,5.1l-0.6-1.8c3.3-1,5.1-1.1,7.9,1.2l-0.6,0.9c-0.7,0.2-1.3,0.5-1.9,1l0.7,0.7c2-1.6,4.8-1.1,6.1,1.1
		c1.1,2,0.5,4.5-1.5,5.6c-2,1.1-4.5,0.5-5.6-1.5c-0.5-0.8-0.6-1.7-0.5-2.6l1.1,0.2c-0.1,0.7,0,1.3,0.4,1.9c0.8,1.4,2.6,1.9,4.1,1.1
		s1.9-2.6,1.1-4.1c-0.9-1.5-2.9-2-4.3-0.9l2.1,2l-0.8,0.8l-3.7-3.4c-1.5,2-1.3,4.7,0.4,6.5l-0.3,0.9l-4.8,1.9
		c0.4,1.8-0.3,3.6-1.9,4.5c-2,1.1-4.5,0.5-5.6-1.5c-1.1-2-0.5-4.5,1.5-5.6c0.5-0.3,1-0.5,1.6-0.5L5.8,14.7z M10.5,15.3
		c-0.5-1-1.3-1.7-2.1-2.1l-1.3,3.5L10.5,15.3z"/>
	<rect x="6.1" y="20.6" class="st0" width="10.6" height="1.1"/>
</g>
</svg>
