<?xml version="1.0" encoding="utf-8"?>
<!-- Generator: Adobe Illustrator 19.1.1, SVG Export Plug-In . SVG Version: 6.00 Build 0)  -->
<svg version="1.1" id="Layer_1" xmlns="http://www.w3.org/2000/svg" xmlns:xlink="http://www.w3.org/1999/xlink" x="0px" y="0px"
	 viewBox="0 0 24 24" style="enable-background:new 0 0 24 24;" xml:space="preserve">
<style type="text/css">
	.st0{fill:#0A5BF0;}
</style>
<g id="Слой_x0020_1">
	<path class="st0" d="M20,15l2.4,3.6l-1.1,2.2H2.1l-1.1-2.2L3.5,15l1,0.7l-2,3l0.5,0.9h17.8l0.5-0.9l-2-3L20,15z M7.4,9.5h3.7v1.2
		H7.4V9.5z M7.4,7.5h3.7v1.2H7.4V7.5z M12.3,7.5H16v1.2h-3.7V7.5z M10.4,3.3h2.7v1.2h-2.7V3.3z M14.6,3.9h5v10.2H3.9V3.9h5v1.2H5
		v7.8h13.4V5.1h-3.8V3.9z M7.2,16.8h9.1v1.2H7.2V16.8z"/>
</g>
</svg>
