<?xml version="1.0" encoding="utf-8"?>
<!-- Generator: Adobe Illustrator 19.1.1, SVG Export Plug-In . SVG Version: 6.00 Build 0)  -->
<svg version="1.1" id="Layer_1" xmlns="http://www.w3.org/2000/svg" xmlns:xlink="http://www.w3.org/1999/xlink" x="0px" y="0px"
	 viewBox="0 0 24 24" style="enable-background:new 0 0 24 24;" xml:space="preserve">
<style type="text/css">
	.st0{fill:#0A5BF0;}
</style>
<g id="Слой_x0020_1">
	<path class="st0" d="M5.8,13.3v-1.4h1.2v1.4H5.8z M13.7,16.9c-1.1-0.6-2.2-0.6-3.3,0c-0.2,1-1.2,1.7-2.2,1.7c-1.3,0-2.3-1-2.3-2.3
		c0-1.3,1-2.3,2.3-2.3c1,0,1.8,0.6,2.1,1.5c1.1-0.5,2.3-0.5,3.4,0c0.4-0.9,1.1-1.5,2.1-1.5c1.3,0,2.3,1,2.3,2.3c0,1.3-1,2.3-2.3,2.3
		C14.8,18.7,13.9,17.9,13.7,16.9z M11.4,7.6V1.6h1.2v6.1h2.1c2-2.5,4.8-3.2,6.5-0.1c0.8,1.4,1.3,3.5,1.2,5.9c-0.1,2-0.3,4.4-0.8,6.1
		c-1.2,4.1-3.6,3.2-5.3,0.2l1-0.6c1.1,2,2.3,3,3.1,0.1c0.5-1.6,0.7-3.9,0.7-5.9c0.1-2.2-0.3-4.1-1-5.3c-1.5-2.6-3.5-1.2-4.9,0.7H8.7
		C7.3,6.9,5.3,5.5,3.8,8.1c-0.7,1.2-1.1,3.1-1,5.3c0.1,1.9,0.3,4.2,0.7,5.9c0.8,2.9,2,2,3.1-0.1l1,0.6c-1.6,3-4.1,3.9-5.3-0.2
		c-0.5-1.7-0.7-4.1-0.8-6.1C1.5,11.1,1.9,9,2.8,7.5c1.8-3.1,4.6-2.4,6.5,0.1H11.4z M18.3,9.1v1.5h1.5v1.2h-1.5v1.5h-1.2v-1.5h-1.5
		v-1.2h1.5V9.1H18.3z M9.9,10.6h4.3v1.2H9.9V10.6z M14.8,16.4c0,0.6,0.5,1.1,1.1,1.1c0.6,0,1.1-0.5,1.1-1.1c0-0.6-0.5-1.1-1.1-1.1
		C15.3,15.3,14.8,15.8,14.8,16.4z M9.3,16.4c0-0.6-0.5-1.1-1.1-1.1c-0.6,0-1.1,0.5-1.1,1.1c0,0.6,0.5,1.1,1.1,1.1
		C8.8,17.5,9.3,17,9.3,16.4z M7.1,10.6h1.4v1.2H7.1V10.6z M4.2,10.6h1.4v1.2H4.2V10.6z M5.8,10.4V9.1h1.2v1.4H5.8z"/>
</g>
</svg>
