<?xml version="1.0" encoding="utf-8"?>
<!-- Generator: Adobe Illustrator 19.1.1, SVG Export Plug-In . SVG Version: 6.00 Build 0)  -->
<svg version="1.1" id="Layer_1" xmlns="http://www.w3.org/2000/svg" xmlns:xlink="http://www.w3.org/1999/xlink" x="0px" y="0px"
	 viewBox="0 0 24 24" style="enable-background:new 0 0 24 24;" xml:space="preserve">
<style type="text/css">
	.st0{fill:#0A5BF0;}
</style>
<g id="Слой_x0020_1">
	<path class="st0" d="M2,14.8c0.6,0.8,1.2,1.5,2,2.1c0.4-1.4,1.3-2.7,2.4-3.7c-0.7-0.8-1.1-1.8-1.1-2.8h1.2c0,1.4,0.7,2.1,1.7,2.9
		c-1.7,1.2-2.8,2.3-3.3,4.4c2,1.3,4.3,2,6.7,2c1.5,0,2.9-0.3,4.2-0.8c-0.1-2.2-2-4-4.3-4c-1.8,0-3.5,1.2-4.1,3l-1.1-0.4
		c0.7-2.3,2.8-3.8,5.2-3.8c2.7,0,5,2,5.4,4.7c1.7-0.8,3.1-2.1,4.2-3.6l1,0.7C19.8,19,15.8,21,11.6,21C7.4,21,3.5,19,1,15.5L2,14.8z
		 M5.9,5.7h1.4v1.2H5.9V5.7z M15.5,8.9c1-1,2.4-1.3,3.7-0.9c1.9,0.6,2.7,2,3,3.8l-3.1,1.8c-0.4-1-0.9-1.7-1.9-2.2
		c0,0.6,0,1.2-0.4,1.8c1,0.8,1.7,1.9,2.2,3l-1.1,0.5c-0.6-1.5-1.5-2.4-2.8-3.3c1.8-1.5,0.8-3.7-1.2-3.7h-3.3c0-1.6-0.2-2.9-1.4-4.1
		c-0.8-0.9-2-1.5-3.3-1.5V2.9c1.6,0,3.1,0.7,4.1,1.8c0.9,1,1.6,2.3,1.7,3.7h2.2C14.5,8.4,15,8.6,15.5,8.9z M16.7,10
		c1.2,0.2,2.2,1,2.9,2l1.3-0.8c-0.3-1-1-1.8-2-2.1C18,8.9,17.1,9,16.4,9.6C16.5,9.7,16.6,9.8,16.7,10z M7.1,9.6H4.4
		C2.3,9.6,1.2,7.5,3,6.1l2.1-1.7l0.7,0.9L4.7,6.3L3.8,7C2.9,7.7,3.3,8.4,4.4,8.4h2.6V9.6z"/>
</g>
</svg>
