<?xml version="1.0" encoding="utf-8"?>
<!-- Generator: Adobe Illustrator 19.1.1, SVG Export Plug-In . SVG Version: 6.00 Build 0)  -->
<svg version="1.1" id="Layer_1" xmlns="http://www.w3.org/2000/svg" xmlns:xlink="http://www.w3.org/1999/xlink" x="0px" y="0px"
	 viewBox="0 0 24 24" style="enable-background:new 0 0 24 24;" xml:space="preserve">
<style type="text/css">
	.st0{fill:#0A5BF0;}
</style>
<g id="Слой_x0020_1">
	<path class="st0" d="M12.1,8.3l-8,8l-3-3l8.8-8.8V2h4.2v2.4l8.8,8.8l-3,3L12.1,8.3z M14.6,16.1v4.1H20v-3h1.2v4.2H2.9v-4.2h1.2v3
		h5.4v-4.1h1.2v4.1h2.7v-4.1H14.6z M8.2,16.1c0-2.1,1.8-3.9,3.9-3.9c2.1,0,3.9,1.8,3.9,3.9h-1.2c0-1.5-1.2-2.7-2.7-2.7
		c-1.5,0-2.7,1.2-2.7,2.7H8.2z M4.1,14.5l8-8l8,8l1.3-1.3l-8.3-8.3V3.2h-1.8v1.7l-8.3,8.3L4.1,14.5z"/>
</g>
</svg>
