<?xml version="1.0" encoding="UTF-8"?>
<!DOCTYPE svg PUBLIC "-//W3C//DTD SVG 1.1//EN"
        "http://www.w3.org/Graphics/SVG/1.1/DTD/svg11.dtd">
<!-- Creator: CorelDRAW X8 -->
<svg xmlns="http://www.w3.org/2000/svg" xml:space="preserve" width="4.1424mm" height="2.6018mm" version="1.1" style="shape-rendering:geometricPrecision; text-rendering:geometricPrecision; image-rendering:optimizeQuality; fill-rule:evenodd; clip-rule:evenodd"
viewBox="0 0 11756 7384"
 xmlns:xlink="http://www.w3.org/1999/xlink">
 <defs>
  <style type="text/css">
   <![CDATA[
    .fil0 {fill:#2150F4;fill-rule:nonzero}
   ]]>
  </style>
 </defs>
 <g id="Слой_x0020_1">
  <metadata id="CorelCorpID_0Corel-Layer"/>
  <path class="fil0" d="M5878 6816c1370,0 4169,-97 5229,-1027l-239 -688c-1781,772 -8200,772 -9981,0l-239 688c1059,930 3859,1027 5230,1027zm-4193 -2036c386,-1296 878,-2676 1546,-3853 250,-439 618,-856 1149,-919 469,-55 908,191 1251,489 386,336 1076,1313 1539,1261l62 563c-843,95 -1396,-897 -1971,-1396 -215,-186 -519,-388 -815,-354 -326,38 -571,368 -723,635 -640,1127 -1114,2457 -1484,3698 1466,264 5811,264 7277,0 -54,-179 -109,-359 -167,-538l-6361 0 0 -568 6172 0c-306,-882 -667,-1781 -1128,-2592 -152,-268 -397,-597 -724,-635 -296,-34 -598,167 -814,354l-370 -428c343,-298 781,-544 1250,-489 532,63 900,479 1150,919 668,1175 1161,2559 1546,3853 439,-120 731,-269 1117,-483l569 1637c-1275,1389 -4107,1450 -5878,1450 -1766,0 -4610,-62 -5878,-1450l568 -1637c387,214 678,363 1117,483z"/>
 </g>
</svg>
