<?xml version="1.0" encoding="utf-8"?>
<!-- Generator: Adobe Illustrator 19.1.1, SVG Export Plug-In . SVG Version: 6.00 Build 0)  -->
<svg version="1.1" id="Layer_1" xmlns="http://www.w3.org/2000/svg" xmlns:xlink="http://www.w3.org/1999/xlink" x="0px" y="0px"
	 viewBox="0 0 24 24" style="enable-background:new 0 0 24 24;" xml:space="preserve">
<style type="text/css">
	.st0{fill:#0A5BF0;}
</style>
<g id="Слой_x0020_1">
	<path class="st0" d="M8.4,1.4h7.2c1.5,0,2.7,1.2,2.7,2.7v14.8H5.7V4.1C5.7,2.6,6.9,1.4,8.4,1.4z M7.9,3.9h8.3v1.2H7.9V3.9z
		 M11.1,19.7H13v1.2h-1.9V19.7z M6.9,20.1c0,0.8,0.7,1.5,1.5,1.5h7.2c0.8,0,1.5-0.7,1.5-1.5h1.2c0,1.5-1.2,2.7-2.7,2.7H8.4
		c-1.5,0-2.7-1.2-2.7-2.7H6.9z M15.6,2.6H8.4c-0.8,0-1.5,0.7-1.5,1.5v13.6h10.2V4.1C17.1,3.3,16.4,2.6,15.6,2.6z"/>
</g>
</svg>
