<?xml version="1.0" encoding="utf-8"?>
<!-- Generator: Adobe Illustrator 19.1.1, SVG Export Plug-In . SVG Version: 6.00 Build 0)  -->
<svg version="1.1" id="Layer_1" xmlns="http://www.w3.org/2000/svg" xmlns:xlink="http://www.w3.org/1999/xlink" x="0px" y="0px"
	 viewBox="0 0 24 24" style="enable-background:new 0 0 24 24;" xml:space="preserve">
<style type="text/css">
	.st0{fill:#0A5BF0;}
</style>
<g id="Слой_x0020_1">
	<path class="st0" d="M17.3,10.9v7.4c0,1.7-1.4,3.1-3.1,3.1v1.2H6.1v-1.2c-1.7,0-3.1-1.4-3.1-3.1v-10h5.2v1.2h-4v8.8
		c0,1,0.9,1.9,1.9,1.9v1.2h8.1v-1.2c1,0,1.9-0.9,1.9-1.9v-7.4H17.3z M9.4,11.9V8.3h7.3c2.9,0,5.2,2.3,5.2,5.2v3.1h-1.2v-3.1
		c0-2.2-1.8-4-4-4h-6.1v2.4h2.1v5.4H7.4v-5.4H9.4z M11.5,13.1c-1,0-2,0-3,0v3h3V13.1z M13.1,2c-0.8,1.7,1.5,2.3,1,4.8l-1.2-0.3
		c0.5-2-2.1-2.6-0.9-5.1L13.1,2z M9.3,2c-0.8,1.7,1.5,2.3,1,4.8L9.1,6.5C9.6,4.5,7,4,8.3,1.5L9.3,2z"/>
</g>
</svg>
