<?xml version="1.0" encoding="utf-8"?>
<!-- Generator: Adobe Illustrator 19.1.1, SVG Export Plug-In . SVG Version: 6.00 Build 0)  -->
<svg version="1.1" id="Layer_1" xmlns="http://www.w3.org/2000/svg" xmlns:xlink="http://www.w3.org/1999/xlink" x="0px" y="0px"
	 viewBox="0 0 24 24" style="enable-background:new 0 0 24 24;" xml:space="preserve">
<style type="text/css">
	.st0{fill:#0A5BF0;}
</style>
<g id="Слой_x0020_1">
	<path class="st0" d="M8.7,3V1.5h1.2v1.3c0.6,0.1,1.1,0.5,1.6,0.8C11.8,3.8,12,4,12,4c0,0,0.3-0.2,0.5-0.4c0.5-0.3,1-0.7,1.6-0.8
		V1.5h1.2V3c2.4,1.4-0.1,3.6,0.2,4.2l-1.1,0.5c-0.3-0.7,0-1.3,0.3-2c0.3-0.6,0.6-1.2,0.1-1.6c-0.5-0.3-1.1,0.1-1.5,0.5
		c-1.1,0.8-1.4,0.8-2.5,0c-0.5-0.4-1.1-0.8-1.5-0.5C8.7,4.4,9,5.1,9.3,5.7C9.6,6.4,10,7,9.6,7.7L8.6,7.2C8.8,6.6,6.4,4.3,8.7,3z
		 M19,15.2l0.3,1.2c-0.1,0-0.2,0.1-0.4,0.1c-0.1,0-0.3,0-0.4,0c-0.8,0-1.7-0.4-2.2-1.1c-0.5,0.7-1.3,1.1-2.2,1.1
		c-0.8,0-1.7-0.4-2.2-1.1c-0.5,0.7-1.3,1.1-2.2,1.1c-0.9,0-1.7-0.4-2.2-1.1c-0.7,0.9-1.8,1.2-2.9,1l0.3-1.2c1,0.2,2-0.4,2-1.5h1.2
		c0,0.9,0.7,1.6,1.6,1.6c0.9,0,1.6-0.7,1.6-1.6h1.2c0,0.9,0.7,1.6,1.6,1.6c0.9,0,1.6-0.7,1.6-1.6H17C17,14.8,18,15.4,19,15.2z
		 M14.6,10.4c-1.7,0.6-3.5,0.6-5.2,0l0.4-1.1c1.5,0.5,3,0.5,4.4,0L14.6,10.4z M21.4,21.2c-0.1-2.8-0.8-5.4-2-7.5
		c-1.3-2.2-3.1-3.8-5.2-4.5l0.4-1.1c2.3,0.8,4.4,2.6,5.8,5c1.6,2.8,2.2,5.7,2.2,8.9c-1.4,0.6-2.8,0.6-3.8-0.7
		c-1.1,1.5-3.4,1.5-4.5,0c-1.1,1.5-3.4,1.5-4.5,0c-1.1,1.5-3.4,1.5-4.5,0c-1,1.4-2.5,1.3-3.8,0.7c0-3.2,0.6-6.1,2.2-8.9
		c1.4-2.4,3.5-4.2,5.8-5l0.4,1.1c-2.1,0.7-3.9,2.3-5.2,4.5c-1.2,2.1-2,4.6-2,7.5c1,0.2,2-0.6,2-1.6h1.2c0,0.9,0.7,1.7,1.7,1.7
		s1.7-0.7,1.7-1.7h1.2c0,0.9,0.7,1.7,1.7,1.7c0.9,0,1.7-0.7,1.7-1.7h1.2c0,0.9,0.7,1.7,1.7,1.7s1.7-0.7,1.7-1.7h1.2
		C19.4,20.6,20.4,21.4,21.4,21.2z"/>
</g>
</svg>
